<svg width="608" height="389" viewBox="0 0 608 389" fill="none" xmlns="http://www.w3.org/2000/svg">
<rect width="608" height="389" fill="black"/>
<path d="M302 393V290.956M302 100.098V0" stroke="white" stroke-miterlimit="10"/>
<path d="M495 388L365 259" stroke="white" stroke-linecap="round" stroke-linejoin="round" stroke-dasharray="2.98 4.97"/>
<path d="M364 257L362.924 255.933M241.076 135.067L240 134" stroke="white"/>
<path d="M237 131L109 3" stroke="white" stroke-linecap="round" stroke-linejoin="round" stroke-dasharray="2.94 4.9"/>
<path d="M484 195H387.709M216.159 195H115" stroke="white" stroke-miterlimit="10"/>
<path d="M497 0L362.42 134.924M241.521 256.131L105 393" stroke="white" stroke-miterlimit="10" stroke-dasharray="3 3"/>
<path d="M329.633 218.261L290.81 179.313C290.318 178.82 289.507 178.82 289.015 179.313L284.456 183.887C283.964 184.38 283.964 185.19 284.456 185.682L323.279 224.631C323.771 225.123 324.581 225.123 325.074 224.631L329.617 220.056C330.125 219.564 330.125 218.753 329.633 218.261ZM325.582 220.533L325.566 220.548C325.074 221.041 324.264 221.041 323.771 220.548L293.606 190.289C293.113 189.796 293.113 188.986 293.606 188.494L293.622 188.478C294.114 187.985 294.924 187.985 295.417 188.478L325.582 218.738C326.074 219.23 326.074 220.04 325.582 220.533ZM289.46 172.911C290.508 172.911 291.366 172.053 291.366 171.005V165.906C291.366 164.858 290.508 164 289.46 164C288.411 164 287.554 164.858 287.554 165.906V171.005C287.554 172.053 288.411 172.911 289.46 172.911ZM289.46 195.658C288.411 195.658 287.554 196.515 287.554 197.564V202.663C287.554 203.711 288.411 204.569 289.46 204.569C290.508 204.569 291.366 203.711 291.366 202.663V197.564C291.366 196.515 290.508 195.658 289.46 195.658ZM301.834 184.046C301.834 185.094 302.692 185.952 303.74 185.952H308.823C309.872 185.952 310.73 185.094 310.73 184.046C310.73 182.998 309.872 182.14 308.823 182.14H303.74C302.692 182.14 301.834 182.998 301.834 184.046ZM277.88 184.046C277.88 182.998 277.022 182.14 275.973 182.14H270.906C269.858 182.14 269 182.998 269 184.046C269 185.094 269.858 185.952 270.906 185.952H275.989C277.022 185.952 277.88 185.094 277.88 184.046ZM278.658 176.231C279.023 176.596 279.5 176.787 280.008 176.787C280.517 176.787 280.993 176.58 281.358 176.231C282.105 175.484 282.105 174.277 281.358 173.531L278.039 170.195C277.673 169.83 277.197 169.639 276.688 169.639C276.18 169.639 275.703 169.845 275.338 170.195C274.591 170.941 274.591 172.149 275.338 172.895L278.658 176.231ZM280.008 191.941C279.5 191.941 279.023 192.147 278.658 192.497L275.338 195.832C274.973 196.198 274.782 196.674 274.782 197.182C274.782 197.691 274.973 198.167 275.338 198.533C275.703 198.898 276.18 199.089 276.688 199.089C277.197 199.089 277.673 198.882 278.039 198.533L281.358 195.197C282.105 194.45 282.105 193.243 281.358 192.497C280.993 192.147 280.517 191.941 280.008 191.941ZM298.927 176.787C299.435 176.787 299.912 176.58 300.277 176.231L303.597 172.895C304.344 172.149 304.344 170.941 303.597 170.195C303.232 169.83 302.755 169.639 302.247 169.639C301.739 169.639 301.262 169.845 300.897 170.195L297.577 173.531C297.212 173.896 297.021 174.373 297.021 174.881C297.021 175.389 297.212 175.866 297.577 176.231C297.942 176.58 298.419 176.787 298.927 176.787Z" fill="white"/>
<path d="M571 201.538V193.327C571 190.527 569.91 187.841 567.969 185.862C566.028 183.882 563.395 182.769 560.65 182.769H556.05C555.135 182.769 554.257 182.398 553.61 181.738C552.963 181.078 552.6 180.183 552.6 179.25V174.558C552.6 171.758 551.51 169.072 549.569 167.092C547.628 165.112 544.995 164 542.25 164H536.5M543.4 164H528.45C526.546 164 525 165.577 525 167.519V221.481C525 223.423 526.546 225 528.45 225H567.55C569.454 225 571 223.423 571 221.481V192.154C571 184.687 568.092 177.526 562.916 172.246C557.74 166.966 550.72 164 543.4 164V164Z" stroke="white" stroke-width="1.5" stroke-linecap="round" stroke-linejoin="round"/>
<path d="M79.3715 166H39.6285C37.0674 166 35 168.052 35 170.527V184.109C35 186.04 38.0856 186.07 38.0856 184.109V181.091H53.3287V222.982H47.1574C45.1826 222.982 45.1518 226 47.1574 226H71.8426C73.8174 226 73.8174 222.982 71.8426 222.982H65.6713V181.091H80.9144V184.109C80.9144 186.04 84 186.07 84 184.109V170.527C84 168.052 81.9326 166 79.3715 166ZM80.9144 178.072H65.6713C63.9742 178.072 62.5856 179.431 62.5856 181.091V222.982H56.4144V181.091C56.4144 179.431 55.0258 178.072 53.3287 178.072H38.0856V170.527C38.0856 169.712 38.7645 169.018 39.6285 169.018H79.3715C80.2355 169.018 80.9144 169.712 80.9144 170.527V178.072Z" fill="white"/>
</svg>
