<svg width="608" height="389" viewBox="0 0 608 389" fill="none" xmlns="http://www.w3.org/2000/svg">
<g clip-path="url(#clip0_209_13)">
<path d="M302 99.5V-14" stroke="white" stroke-miterlimit="10"/>
<path d="M302 404.5V291" stroke="white" stroke-miterlimit="10"/>
<path d="M206 99L78 -29" stroke="white" stroke-linecap="round" stroke-linejoin="round" stroke-dasharray="2.94 4.9"/>
<path d="M206 291L78 419" stroke="white" stroke-linecap="round" stroke-linejoin="round" stroke-dasharray="2.94 4.9"/>
<path d="M526 419L398 291" stroke="white" stroke-linecap="round" stroke-linejoin="round" stroke-dasharray="2.94 4.9"/>
<path d="M398 99L526 -29" stroke="white" stroke-linecap="round" stroke-linejoin="round" stroke-dasharray="2.94 4.9"/>
<path d="M206 195H100" stroke="white" stroke-miterlimit="10"/>
<path d="M504 195H398" stroke="white" stroke-miterlimit="10"/>
<path d="M222.5 115.5H381.5V274.5H222.5V115.5Z" stroke="white"/>
<path d="M331.633 218.261L292.81 179.313C292.318 178.82 291.507 178.82 291.015 179.313L286.456 183.887C285.964 184.38 285.964 185.19 286.456 185.682L325.279 224.631C325.771 225.123 326.581 225.123 327.074 224.631L331.617 220.056C332.125 219.564 332.125 218.753 331.633 218.261ZM327.582 220.533L327.566 220.548C327.074 221.041 326.264 221.041 325.771 220.548L295.606 190.289C295.113 189.796 295.113 188.986 295.606 188.494L295.622 188.478C296.114 187.985 296.924 187.985 297.417 188.478L327.582 218.738C328.074 219.23 328.074 220.04 327.582 220.533ZM291.46 172.911C292.508 172.911 293.366 172.053 293.366 171.005V165.906C293.366 164.858 292.508 164 291.46 164C290.411 164 289.554 164.858 289.554 165.906V171.005C289.554 172.053 290.411 172.911 291.46 172.911ZM291.46 195.658C290.411 195.658 289.554 196.515 289.554 197.564V202.663C289.554 203.711 290.411 204.569 291.46 204.569C292.508 204.569 293.366 203.711 293.366 202.663V197.564C293.366 196.515 292.508 195.658 291.46 195.658ZM303.834 184.046C303.834 185.094 304.692 185.952 305.74 185.952H310.823C311.872 185.952 312.73 185.094 312.73 184.046C312.73 182.998 311.872 182.14 310.823 182.14H305.74C304.692 182.14 303.834 182.998 303.834 184.046ZM279.88 184.046C279.88 182.998 279.022 182.14 277.973 182.14H272.906C271.858 182.14 271 182.998 271 184.046C271 185.094 271.858 185.952 272.906 185.952H277.989C279.022 185.952 279.88 185.094 279.88 184.046ZM280.658 176.231C281.023 176.596 281.5 176.787 282.008 176.787C282.517 176.787 282.993 176.58 283.358 176.231C284.105 175.484 284.105 174.277 283.358 173.531L280.039 170.195C279.673 169.83 279.197 169.639 278.688 169.639C278.18 169.639 277.703 169.845 277.338 170.195C276.591 170.941 276.591 172.149 277.338 172.895L280.658 176.231ZM282.008 191.941C281.5 191.941 281.023 192.147 280.658 192.497L277.338 195.832C276.973 196.198 276.782 196.674 276.782 197.182C276.782 197.691 276.973 198.167 277.338 198.533C277.703 198.898 278.18 199.089 278.688 199.089C279.197 199.089 279.673 198.882 280.039 198.533L283.358 195.197C284.105 194.45 284.105 193.243 283.358 192.497C282.993 192.147 282.517 191.941 282.008 191.941ZM300.927 176.787C301.435 176.787 301.912 176.58 302.277 176.231L305.597 172.895C306.344 172.149 306.344 170.941 305.597 170.195C305.232 169.83 304.755 169.639 304.247 169.639C303.739 169.639 303.262 169.845 302.897 170.195L299.577 173.531C299.212 173.896 299.021 174.373 299.021 174.881C299.021 175.389 299.212 175.866 299.577 176.231C299.942 176.58 300.419 176.787 300.927 176.787Z" fill="white"/>
<path d="M568 201.538V187.5M568 187.5H546V167M568 187.5L546 167M568 187.5V225H522V167H546" stroke="white" stroke-width="3" stroke-linecap="square" stroke-linejoin="round"/>
<path d="M35 166V181.091H52V226H67V181.091H84V166H35ZM80.9144 178.072H64V222.982H55V178.072H38.0856V169.018H80.9144V178.072Z" fill="white"/>
</g>
<defs>
<clipPath id="clip0_209_13">
<rect width="608" height="389" fill="white"/>
</clipPath>
</defs>
</svg>
