<svg width="189" height="48" viewBox="0 0 189 48" fill="none" xmlns="http://www.w3.org/2000/svg">
<path d="M53.4861 27.6186C53.4833 27.7855 53.4156 27.9445 53.2978 28.0608C53.18 28.1771 53.0216 28.2414 52.8573 28.2395H41.2762C41.5731 31.1486 43.7216 33.8093 46.761 33.8093C48.8397 33.8093 50.3768 33.0111 51.5297 31.3259C51.5834 31.2374 51.6576 31.1636 51.746 31.111C51.8343 31.0585 51.934 31.0287 52.0363 31.0244C52.1126 31.0222 52.1885 31.0358 52.2594 31.0645C52.3303 31.0931 52.3947 31.1361 52.4487 31.1909C52.5027 31.2457 52.545 31.3111 52.5732 31.3832C52.6014 31.4552 52.6149 31.5323 52.6127 31.6098C52.6131 31.7168 52.5828 31.8216 52.5254 31.9113C51.355 33.969 49.0318 34.98 46.761 34.98C42.8657 34.98 40.0709 31.4324 40.0709 27.6541C40.0709 23.8758 42.8483 20.3282 46.761 20.3282C50.6738 20.3282 53.4686 23.8404 53.4861 27.6186V27.6186ZM52.2459 27.0687C52.0013 24.1596 49.8004 21.4989 46.761 21.4989C43.7216 21.4989 41.5731 24.1596 41.2762 27.0687H52.2459Z" fill="white"/>
<path d="M67.565 20.612C67.7165 20.6164 67.8606 20.6795 67.9678 20.7884C68.0749 20.8972 68.1371 21.0435 68.1415 21.1973C68.1436 21.2748 68.1302 21.3519 68.102 21.4239C68.0738 21.4959 68.0314 21.5614 67.9775 21.6162C67.9235 21.671 67.8591 21.714 67.7882 21.7426C67.7173 21.7713 67.6413 21.7849 67.565 21.7827H64.4558V34.1818C64.4544 34.3366 64.3933 34.4847 64.2855 34.5942C64.1776 34.7037 64.0318 34.7658 63.8794 34.7672C63.7279 34.7627 63.5838 34.6996 63.4766 34.5908C63.3695 34.482 63.3073 34.3357 63.3029 34.1818V21.7827H60.3159C60.2397 21.7849 60.1637 21.7713 60.0928 21.7426C60.0219 21.714 59.9575 21.671 59.9035 21.6162C59.8496 21.5614 59.8072 21.4959 59.779 21.4239C59.7508 21.3519 59.7373 21.2748 59.7395 21.1973C59.7409 21.0425 59.8021 20.8944 59.9099 20.785C60.0177 20.6755 60.1635 20.6134 60.3159 20.612H63.3029V16.0887C63.3032 15.9388 63.3562 15.7939 63.4522 15.6801C63.5483 15.5663 63.6811 15.4911 63.827 15.4678C63.9085 15.4569 63.9913 15.4639 64.0699 15.4884C64.1485 15.5129 64.221 15.5544 64.2824 15.61C64.3437 15.6655 64.3925 15.7339 64.4255 15.8104C64.4584 15.8869 64.4747 15.9697 64.4733 16.0532V20.612H67.565Z" fill="white"/>
<path d="M86.5175 26.6076V34.1109C86.5131 34.2647 86.451 34.411 86.3438 34.5199C86.2367 34.6287 86.0926 34.6918 85.9411 34.6963C85.8648 34.6985 85.7889 34.6848 85.718 34.6562C85.647 34.6276 85.5826 34.5845 85.5287 34.5297C85.4747 34.4749 85.4323 34.4095 85.4041 34.3375C85.3759 34.2655 85.3625 34.1884 85.3647 34.1109V26.6076C85.3647 24.071 83.9498 21.5521 81.1724 21.5521C77.609 21.5521 76.0718 24.7096 76.2815 27.9557C76.2815 28.0444 76.3164 28.4169 76.3164 28.4701V34.0931C76.3161 34.243 76.2632 34.3879 76.1671 34.5017C76.0711 34.6155 75.9382 34.6908 75.7924 34.714C75.7109 34.725 75.628 34.718 75.5494 34.6935C75.4708 34.6689 75.3983 34.6275 75.337 34.5719C75.2756 34.5163 75.2268 34.4479 75.1938 34.3714C75.1609 34.2949 75.1446 34.2121 75.1461 34.1286V9.45457C75.1474 9.29975 75.2086 9.15166 75.3164 9.04219C75.4242 8.93271 75.57 8.87059 75.7225 8.8692C75.874 8.87366 76.0181 8.93677 76.1252 9.04559C76.2324 9.15442 76.2945 9.30073 76.2989 9.45457V23.3969C77.2946 21.5876 79.0763 20.3637 81.1549 20.3637C84.5786 20.3637 86.5175 23.3969 86.5175 26.6076Z" fill="white"/>
<path d="M107.322 27.6186C107.319 27.7855 107.251 27.9445 107.133 28.0608C107.015 28.1771 106.857 28.2414 106.693 28.2395H95.1116C95.4086 31.1486 97.5571 33.8093 100.597 33.8093C102.675 33.8093 104.212 33.0111 105.365 31.3259C105.419 31.2374 105.493 31.1636 105.581 31.111C105.67 31.0585 105.769 31.0287 105.872 31.0244C105.948 31.0222 106.024 31.0358 106.095 31.0645C106.166 31.0931 106.23 31.1361 106.284 31.1909C106.338 31.2457 106.381 31.3111 106.409 31.3832C106.437 31.4552 106.45 31.5323 106.448 31.6098C106.449 31.7168 106.418 31.8216 106.361 31.9113C105.191 33.969 102.867 34.98 100.597 34.98C96.7012 34.98 93.9064 31.4324 93.9064 27.6541C93.9064 23.8758 96.6837 20.3282 100.597 20.3282C104.474 20.3282 107.304 23.8404 107.322 27.6186V27.6186ZM106.064 27.0687C105.819 24.1596 103.618 21.4989 100.579 21.4989C97.5397 21.4989 95.3911 24.1596 95.0942 27.0687H106.064Z" fill="white"/>
<path d="M121.558 21.1619C121.569 21.3194 121.518 21.4749 121.417 21.5946C121.315 21.7142 121.171 21.7882 121.016 21.8005C117.61 22.3149 116.073 25.1353 116.073 28.4169V34.0399C116.073 34.1898 116.02 34.3347 115.924 34.4485C115.828 34.5623 115.695 34.6376 115.549 34.6608C115.467 34.6718 115.384 34.6648 115.306 34.6402C115.227 34.6157 115.155 34.5742 115.093 34.5187C115.032 34.4631 114.983 34.3947 114.95 34.3182C114.917 34.2417 114.901 34.1589 114.903 34.0754V21.2506C114.903 21.1007 114.956 20.9558 115.052 20.842C115.148 20.7282 115.281 20.653 115.427 20.6297C115.508 20.6187 115.591 20.6258 115.67 20.6503C115.748 20.6748 115.821 20.7163 115.882 20.7718C115.943 20.8274 115.992 20.8958 116.025 20.9723C116.058 21.0488 116.074 21.1316 116.073 21.2151V23.8226C117.034 22.173 118.938 20.612 120.929 20.612C121.226 20.612 121.558 20.8249 121.558 21.1619Z" fill="white"/>
<path d="M140.598 27.6186C140.595 27.7855 140.527 27.9445 140.409 28.0608C140.291 28.1771 140.133 28.2414 139.969 28.2395H128.388C128.685 31.1486 130.833 33.8093 133.872 33.8093C135.951 33.8093 137.488 33.0111 138.641 31.3259C138.695 31.2374 138.769 31.1636 138.857 31.111C138.946 31.0585 139.045 31.0287 139.148 31.0244C139.224 31.0222 139.3 31.0358 139.371 31.0645C139.442 31.0931 139.506 31.1361 139.56 31.1909C139.614 31.2457 139.656 31.3111 139.685 31.3832C139.713 31.4552 139.726 31.5323 139.724 31.6098C139.725 31.7168 139.694 31.8216 139.637 31.9113C138.466 33.969 136.143 34.98 133.872 34.98C129.977 34.98 127.182 31.4324 127.182 27.6541C127.182 23.8758 129.96 20.3282 133.872 20.3282C137.785 20.3282 140.58 23.8404 140.598 27.6186V27.6186ZM139.357 27.0687C139.113 24.1596 136.912 21.4989 133.872 21.4989C130.833 21.4989 128.685 24.1596 128.388 27.0687H139.357Z" fill="white"/>
<path d="M159.323 21.3037V34.1818C159.319 34.3356 159.256 34.4819 159.149 34.5908C159.042 34.6996 158.898 34.7627 158.746 34.7672C158.67 34.7694 158.594 34.7557 158.523 34.7271C158.452 34.6985 158.388 34.6554 158.334 34.6006C158.28 34.5458 158.238 34.4804 158.209 34.4084C158.181 34.3364 158.168 34.2593 158.17 34.1818V31.7339C157.209 33.6674 155.515 35.0687 153.349 35.0687C149.908 35.0687 148.004 32.0355 148.004 28.8248V21.286C148.005 21.1312 148.066 20.9831 148.174 20.8736C148.282 20.7642 148.428 20.702 148.58 20.7006C148.732 20.7051 148.876 20.7682 148.983 20.877C149.09 20.9859 149.152 21.1322 149.157 21.286V28.8248C149.157 31.3614 150.572 33.8802 153.349 33.8802C157.244 33.8802 158.17 30.1729 158.17 26.0754V21.2683C158.171 21.1734 158.195 21.0802 158.239 20.9965C158.283 20.9128 158.346 20.841 158.423 20.7871C158.5 20.7333 158.589 20.6989 158.681 20.687C158.774 20.675 158.868 20.6858 158.956 20.7184C159.066 20.7702 159.159 20.8529 159.224 20.9566C159.289 21.0603 159.323 21.1808 159.323 21.3037V21.3037Z" fill="white"/>
<path d="M188.651 26.5543V34.0931C188.647 34.247 188.585 34.3933 188.477 34.5021C188.37 34.6109 188.226 34.674 188.075 34.6785C187.998 34.6807 187.923 34.6671 187.852 34.6384C187.781 34.6098 187.716 34.5668 187.662 34.512C187.608 34.4572 187.566 34.3917 187.538 34.3197C187.51 34.2477 187.496 34.1706 187.498 34.0931V26.5543C187.498 24.0177 186.083 21.5344 183.306 21.5344C179.813 21.5344 178.485 25.3304 178.485 28.275V34.0931C178.481 34.247 178.418 34.3933 178.311 34.5021C178.204 34.6109 178.06 34.674 177.909 34.6785C177.832 34.6807 177.756 34.6671 177.685 34.6384C177.614 34.6098 177.55 34.5668 177.496 34.512C177.442 34.4572 177.4 34.3917 177.372 34.3197C177.343 34.2477 177.33 34.1706 177.332 34.0931V26.5543C177.332 24.0177 175.917 21.5344 173.14 21.5344C169.611 21.5344 168.162 24.3548 168.284 28.1153C168.284 28.204 168.319 28.3636 168.284 28.4169V34.0754C168.284 34.2253 168.231 34.3701 168.135 34.4839C168.038 34.5977 167.906 34.673 167.76 34.6962C167.678 34.7072 167.595 34.7002 167.517 34.6757C167.438 34.6512 167.366 34.6097 167.304 34.5541C167.243 34.4986 167.194 34.4302 167.161 34.3537C167.128 34.2772 167.112 34.1944 167.113 34.1109V21.2506C167.114 21.1007 167.167 20.9558 167.263 20.842C167.359 20.7282 167.492 20.6529 167.638 20.6297C167.719 20.6187 167.802 20.6257 167.88 20.6503C167.959 20.6748 168.032 20.7163 168.093 20.7718C168.154 20.8274 168.203 20.8958 168.236 20.9723C168.269 21.0488 168.285 21.1316 168.284 21.2151V23.3614C169.279 21.5521 171.061 20.3636 173.14 20.3636C175.498 20.3636 177.332 21.8891 178.083 24.1064C179.044 21.9069 180.913 20.3636 183.306 20.3636C186.712 20.3636 188.651 23.3614 188.651 26.5543Z" fill="white"/>
<path opacity="0.6" d="M14.4982 17.7561L0 24.4434L14.4982 33.153L29.0139 24.4434L14.4982 17.7561Z" fill="white"/>
<path opacity="0.45" d="M0 24.4435L14.4982 33.153V0L0 24.4435Z" fill="white"/>
<path opacity="0.8" d="M14.4982 0V33.153L29.0139 24.4435L14.4982 0Z" fill="white"/>
<path opacity="0.45" d="M0 27.2461L14.4982 48V35.9379L0 27.2461Z" fill="white"/>
<path opacity="0.8" d="M14.4982 35.9379V48L29.0139 27.2461L14.4982 35.9379Z" fill="white"/>
</svg>
