<svg width="54" height="48" viewBox="0 0 54 48" fill="none" xmlns="http://www.w3.org/2000/svg">
<path d="M40.4224 14.6639C39.4341 14.055 38.1492 14.055 37.0621 14.6639L29.3531 19.3319L24.1151 22.3762L16.4061 27.0443C15.4178 27.6533 14.133 27.6533 13.0458 27.0443L6.91821 23.3911C5.92992 22.7823 5.23808 21.6659 5.23808 20.4481V13.2431C5.23808 12.0254 5.83098 10.909 6.91821 10.3002L12.9471 6.74831C13.9354 6.13955 15.2201 6.13955 16.3073 6.74831L22.336 10.3002C23.3243 10.909 24.0161 12.0254 24.0161 13.2431V17.9112L29.2544 14.7652V10.0973C29.2544 8.87939 28.6615 7.76319 27.5743 7.15426L16.4061 0.456701C15.4178 -0.152234 14.133 -0.152234 13.0458 0.456701L1.68013 7.15426C0.592901 7.76319 0 8.87939 0 10.0973V23.594C0 24.8117 0.592901 25.9281 1.68013 26.5369L13.0458 33.2346C14.0341 33.8435 15.319 33.8435 16.4061 33.2346L24.1151 28.668L29.3531 25.5222L37.0621 20.9555C38.0504 20.3468 39.3353 20.3468 40.4224 20.9555L46.4511 24.5074C47.4395 25.1162 48.1314 26.2326 48.1314 27.4503V34.6555C48.1314 35.8731 47.5383 36.9893 46.4511 37.5983L40.4224 41.2517C39.4341 41.8605 38.1492 41.8605 37.0621 41.2517L31.0334 37.6998C30.045 37.0908 29.3531 35.9746 29.3531 34.7568V30.0888L24.1151 33.2346V37.9027C24.1151 39.1204 24.708 40.2366 25.7952 40.8456L37.1609 47.5433C38.1492 48.1522 39.4341 48.1522 40.5211 47.5433L51.887 40.8456C52.8753 40.2366 53.5671 39.1204 53.5671 37.9027V24.406C53.5671 23.1881 52.9741 22.0719 51.887 21.463L40.4224 14.6639Z" fill="#666666"/>
</svg>
