<svg width="48" height="48" viewBox="0 0 48 48" fill="none" xmlns="http://www.w3.org/2000/svg">
<path d="M47.7109 42.6972L17.1619 12.0492C16.7744 11.6617 16.137 11.6617 15.7495 12.0492L12.1621 15.649C11.7746 16.0365 11.7746 16.6739 12.1621 17.0614L42.7111 47.7094C43.0986 48.0969 43.7361 48.0969 44.1235 47.7094L47.6984 44.1096C48.0984 43.7221 48.0984 43.0847 47.7109 42.6972ZM44.5235 44.4846L44.511 44.4971C44.1235 44.8846 43.4861 44.8846 43.0986 44.4971L19.3619 20.6862C18.9744 20.2987 18.9744 19.6612 19.3619 19.2737L19.3744 19.2612C19.7618 18.8738 20.3993 18.8738 20.7868 19.2612L44.5235 43.0722C44.911 43.4597 44.911 44.0971 44.5235 44.4846ZM16.0995 7.01204C16.9244 7.01204 17.5994 6.33709 17.5994 5.51214V1.4999C17.5994 0.674956 16.9244 0 16.0995 0C15.2745 0 14.5995 0.674956 14.5995 1.4999V5.51214C14.5995 6.33709 15.2745 7.01204 16.0995 7.01204ZM16.0995 24.9109C15.2745 24.9109 14.5995 25.5858 14.5995 26.4108V30.423C14.5995 31.248 15.2745 31.9229 16.0995 31.9229C16.9244 31.9229 17.5994 31.248 17.5994 30.423V26.4108C17.5994 25.5858 16.9244 24.9109 16.0995 24.9109ZM25.8367 15.774C25.8367 16.5989 26.5116 17.2739 27.3366 17.2739H31.3365C32.1614 17.2739 32.8364 16.5989 32.8364 15.774C32.8364 14.949 32.1614 14.2741 31.3365 14.2741H27.3366C26.5116 14.2741 25.8367 14.949 25.8367 15.774ZM6.98727 15.774C6.98727 14.949 6.31229 14.2741 5.48732 14.2741H1.49995C0.674978 14.2741 0 14.949 0 15.774C0 16.5989 0.674978 17.2739 1.49995 17.2739H5.49982C6.31229 17.2739 6.98727 16.5989 6.98727 15.774ZM7.59975 9.62437C7.88724 9.91185 8.26223 10.0618 8.66221 10.0618C9.0622 10.0618 9.43719 9.89935 9.72468 9.62437C10.3122 9.03691 10.3122 8.08697 9.72468 7.49951L7.11227 4.87468C6.82478 4.5872 6.44979 4.43721 6.0498 4.43721C5.64981 4.43721 5.27483 4.5997 4.98734 4.87468C4.39986 5.46214 4.39986 6.41208 4.98734 6.99954L7.59975 9.62437ZM8.66221 21.9861C8.26223 21.9861 7.88724 22.1486 7.59975 22.4235L4.98734 25.0484C4.69985 25.3358 4.54985 25.7108 4.54985 26.1108C4.54985 26.5108 4.69985 26.8857 4.98734 27.1732C5.27483 27.4607 5.64981 27.6107 6.0498 27.6107C6.44979 27.6107 6.82478 27.4482 7.11227 27.1732L9.72468 24.5484C10.3122 23.9609 10.3122 23.011 9.72468 22.4235C9.43719 22.1486 9.0622 21.9861 8.66221 21.9861ZM23.5492 10.0618C23.9492 10.0618 24.3242 9.89935 24.6117 9.62437L27.2241 6.99954C27.8116 6.41208 27.8116 5.46214 27.2241 4.87468C26.9366 4.5872 26.5616 4.43721 26.1616 4.43721C25.7616 4.43721 25.3867 4.5997 25.0992 4.87468L22.4868 7.49951C22.1993 7.78699 22.0493 8.16197 22.0493 8.56194C22.0493 8.96192 22.1993 9.33689 22.4868 9.62437C22.7742 9.89935 23.1492 10.0618 23.5492 10.0618Z" fill="white"/>
</svg>